<?xml version="1.0" encoding="iso-8859-1"?>
<!-- Uploaded to: SVG Repo, www.svgrepo.com, Generator: SVG Repo Mixer Tools -->
<svg fill="#000000" height="800px" width="800px" version="1.1" id="Capa_1" xmlns="http://www.w3.org/2000/svg" xmlns:xlink="http://www.w3.org/1999/xlink" 
	 viewBox="0 0 612.001 612.001" xml:space="preserve">
<g>
	<g>
		<path d="M340.294,340.29c63.651-63.651,63.651-167.218,0-230.869c-30.833-30.833-71.83-47.813-115.434-47.813
			c-43.607,0-84.601,16.98-115.431,47.813c-30.834,30.834-47.816,71.83-47.816,115.435s16.981,84.601,47.813,115.432
			c30.833,30.836,71.828,47.817,115.434,47.817C268.467,388.104,309.462,371.123,340.294,340.29z M96.287,224.855
			c0-34.342,13.375-66.632,37.659-90.919c24.283-24.284,56.569-37.656,90.914-37.656c34.342,0,66.632,13.374,90.917,37.658
			c50.13,50.131,50.13,131.701,0,181.834c-24.286,24.286-56.573,37.659-90.917,37.659c-34.342,0-66.63-13.374-90.916-37.659
			C109.662,291.486,96.287,259.199,96.287,224.855z"/>
		<path d="M270.197,173.007c3.385,3.386,7.823,5.078,12.26,5.078c4.435,0,8.875-1.692,12.257-5.078
			c6.773-6.77,6.773-17.747,0.003-24.518c-18.66-18.66-43.468-28.938-69.858-28.938c-0.001,0,0,0-0.001,0
			c-26.388,0-51.196,10.276-69.853,28.933c-6.771,6.771-6.771,17.747,0,24.518c6.771,6.77,17.747,6.77,24.518,0
			c12.11-12.11,28.209-18.778,45.338-18.778C241.987,154.226,258.09,160.896,270.197,173.007z"/>
		<path d="M598.03,512.188V86.602c0-9.574-7.762-17.337-17.336-17.337H387.182c-1.095-1.144-2.199-2.283-3.321-3.407
			C341.388,23.387,284.921,0,224.862,0C164.798,0,108.333,23.387,65.865,65.857C23.394,108.326,0.004,164.792,0.004,224.855
			s23.39,116.529,65.86,158.999c1.123,1.123,2.258,2.225,3.401,3.32v193.518c0,9.574,7.762,17.337,17.337,17.337h425.596
			c11.214,9.321,25.09,13.975,38.968,13.973c15.664-0.001,31.321-5.922,43.119-17.722
			C616.533,572.031,617.869,536.065,598.03,512.188z M569.765,569.762c-10.028,10.031-26.518,10.208-36.755,0.399
			c-0.13-0.123-0.257-0.241-0.389-0.36l-168.71-168.212c6.939-5.48,13.603-11.39,19.95-17.735
			c6.326-6.328,12.185-12.95,17.597-19.81l168.388,168.611c0.104,0.116,0.211,0.23,0.319,0.341
			C579.972,543.242,579.794,559.733,569.765,569.762z M563.357,103.938v373.153L421.11,334.656
			c40.096-71.728,37.867-160.919-6.662-230.718H563.357z M34.677,224.855c0-50.799,19.784-98.558,55.705-134.48
			c35.92-35.921,83.678-55.702,134.48-55.702c50.799,0,98.558,19.781,134.481,55.702c74.148,74.153,74.148,194.809,0,268.961
			c-35.923,35.921-83.681,55.704-134.481,55.704c-50.799,0-98.56-19.782-134.478-55.704
			C54.461,323.415,34.677,275.655,34.677,224.855z M103.939,563.354V414.511c35.786,22.916,77.406,35.202,120.921,35.202
			c39.027,0,76.534-9.885,109.671-28.455l142.516,142.096L103.939,563.354L103.939,563.354z"/>
	</g>
</g>
</svg>